<svg xmlns="http://www.w3.org/2000/svg" version="1.1" xmlns:xlink="http://www.w3.org/1999/xlink" xmlns:svgjs="http://svgjs.dev/svgjs" width="1400" height="500" preserveAspectRatio="none" viewBox="0 0 1400 500"><g mask="url(&quot;#SvgjsMask1198&quot;)" fill="none"><path d="M61.46 270.06 a95.07 95.07 0 1 0 190.14 0 a95.07 95.07 0 1 0 -190.14 0z" fill="rgba(137, 33, 107, 1)" class="triangle-float3"></path><path d="M-94.66 459.81 a109.15 109.15 0 1 0 218.3 0 a109.15 109.15 0 1 0 -218.3 0z" fill="rgba(137, 33, 107, 1)" class="triangle-float1"></path><path d="M767.98 192.89 a98.71 98.71 0 1 0 197.42 0 a98.71 98.71 0 1 0 -197.42 0z" fill="rgba(137, 33, 107, 1)" class="triangle-float3"></path><path d="M544.21 236.2 a101.37 101.37 0 1 0 202.74 0 a101.37 101.37 0 1 0 -202.74 0z" fill="rgba(137, 33, 107, 1)" class="triangle-float3"></path></g><defs><mask id="SvgjsMask1198"><rect width="1400" height="500" fill="#ffffff"></rect></mask><style>
                @keyframes float1 {
                    0%{transform: translate(0, 0)}
                    50%{transform: translate(-10px, 0)}
                    100%{transform: translate(0, 0)}
                }

                .triangle-float1 {
                    animation: float1 5s infinite;
                }

                @keyframes float2 {
                    0%{transform: translate(0, 0)}
                    50%{transform: translate(-5px, -5px)}
                    100%{transform: translate(0, 0)}
                }

                .triangle-float2 {
                    animation: float2 4s infinite;
                }

                @keyframes float3 {
                    0%{transform: translate(0, 0)}
                    50%{transform: translate(0, -10px)}
                    100%{transform: translate(0, 0)}
                }

                .triangle-float3 {
                    animation: float3 6s infinite;
                }
            </style></defs></svg>