<?xml version="1.0" standalone="no"?><svg xmlns="http://www.w3.org/2000/svg" viewBox="0 0 1440 320"><path fill="#89216b" fill-opacity="1" d="M0,32L21.8,48C43.6,64,87,96,131,112C174.5,128,218,128,262,122.7C305.5,117,349,107,393,112C436.4,117,480,139,524,170.7C567.3,203,611,245,655,240C698.2,235,742,181,785,144C829.1,107,873,85,916,80C960,75,1004,85,1047,128C1090.9,171,1135,245,1178,245.3C1221.8,245,1265,171,1309,122.7C1352.7,75,1396,53,1418,42.7L1440,32L1440,320L1418.2,320C1396.4,320,1353,320,1309,320C1265.5,320,1222,320,1178,320C1134.5,320,1091,320,1047,320C1003.6,320,960,320,916,320C872.7,320,829,320,785,320C741.8,320,698,320,655,320C610.9,320,567,320,524,320C480,320,436,320,393,320C349.1,320,305,320,262,320C218.2,320,175,320,131,320C87.3,320,44,320,22,320L0,320Z"></path></svg>